<svg xmlns="http://www.w3.org/2000/svg" viewBox="0 0 100 100" width="100" height="100">
  <defs>
    <linearGradient id="grad1" x1="0%" y1="0%" x2="100%" y2="100%">
      <stop offset="0%" style="stop-color:#ff774a;stop-opacity:1" />
      <stop offset="100%" style="stop-color:#ff5a2a;stop-opacity:1" />
    </linearGradient>
    <filter id="shadow" x="-20%" y="-20%" width="140%" height="140%">
      <feDropShadow dx="2" dy="4" stdDeviation="3" flood-opacity="0.3"/>
    </filter>
  </defs>
  
  <!-- Keycap background -->
  <rect x="5" y="5" width="90" height="90" rx="18" ry="18" 
        fill="url(#grad1)" filter="url(#shadow)"/>
  
  <!-- Top highlight -->
  <rect x="8" y="8" width="84" height="84" rx="15" ry="15" 
        fill="none" stroke="rgba(255,255,255,0.4)" stroke-width="1"/>
  
  <!-- Navigation symbol -->
  <g transform="translate(50,50)" fill="white">
    <!-- Grid dots representing navigation -->
    <circle cx="-15" cy="-15" r="3"/>
    <circle cx="0" cy="-15" r="3"/>
    <circle cx="15" cy="-15" r="3"/>
    <circle cx="-15" cy="0" r="3"/>
    <circle cx="0" cy="0" r="4" fill="#fff"/>
    <circle cx="15" cy="0" r="3"/>
    <circle cx="-15" cy="15" r="3"/>
    <circle cx="0" cy="15" r="3"/>
    <circle cx="15" cy="15" r="3"/>
    
    <!-- Connection lines -->
    <path d="M-12,-15 L12,-15 M-15,-12 L-15,12 M12,-15 L12,15 M-15,12 L15,12" 
          stroke="rgba(255,255,255,0.6)" stroke-width="1" fill="none"/>
  </g>
</svg>